<?xml version="1.0" encoding="UTF-8"?>
<svg width="559px" height="161px" viewBox="0 0 559 161" version="1.1" xmlns="http://www.w3.org/2000/svg" xmlns:xlink="http://www.w3.org/1999/xlink">
    <!-- Generator: Sketch 43.2 (39069) - http://www.bohemiancoding.com/sketch -->
    <title>horizontal</title>
    <desc>Created with Sketch.</desc>
    <defs>
        <polygon id="path-1" points="0 188 576 188 576 0 0 0"></polygon>
    </defs>
    <g id="Page-1" stroke="none" stroke-width="1" fill="none" fill-rule="evenodd">
        <g id="horizontal" transform="translate(-8.000000, -13.000000)">
            <path d="M138.0781,96.7861 L148.6531,96.7861 L148.6531,126.4471 C148.6531,141.0251 136.7931,152.8851 122.2151,152.8851 L92.3111,152.8851 L92.3111,142.3091 L122.2151,142.3091 C130.9621,142.3091 138.0781,135.1931 138.0781,126.4471 L138.0781,96.7861 Z M85.2491,142.3091 L85.2491,152.8851 L55.3611,152.8851 C40.7831,152.8851 28.9231,141.0251 28.9231,126.4471 L28.9231,96.7861 L39.4981,96.7861 L39.4981,126.4471 C39.4981,135.1931 46.6141,142.3091 55.3611,142.3091 L85.2491,142.3091 Z M92.3111,43.7291 L92.3111,33.1551 L122.2151,33.1551 C136.7931,33.1551 148.6531,45.0151 148.6531,59.5921 L148.6531,89.7241 L138.0781,89.7241 L138.0781,59.5921 C138.0781,50.8461 130.9621,43.7291 122.2151,43.7291 L92.3111,43.7291 Z M39.4981,89.7241 L28.9231,89.7241 L28.9231,59.5921 C28.9231,45.0151 40.7831,33.1551 55.3611,33.1551 L85.2491,33.1551 L85.2491,43.7291 L55.3611,43.7291 C46.6141,43.7291 39.4981,50.8461 39.4981,59.5921 L39.4981,89.7241 Z M101.1991,73.4331 C105.6301,73.4331 109.2341,77.0381 109.2341,81.4691 L109.2341,105.7681 C109.2341,110.1991 105.6301,113.8041 101.1991,113.8041 L87.2121,113.8041 L87.2121,103.2281 L98.6591,103.2281 L98.6591,84.0091 L87.2121,84.0091 L87.2121,73.4331 L101.1991,73.4331 Z M80.1501,113.8041 L73.5661,113.8041 L73.5661,113.7911 L69.6151,113.7911 L69.6151,84.0091 L69.6151,73.5551 L69.6151,73.4331 L80.1501,73.4331 L80.1501,113.8041 Z M59.7251,122.0821 L117.8501,122.0821 L117.8501,63.9571 L59.7251,63.9571 L59.7251,122.0821 Z M117.8511,132.6571 L59.7251,132.6571 C53.8941,132.6571 49.1501,127.9131 49.1501,122.0821 L49.1501,63.9571 C49.1501,58.1261 53.8941,53.3821 59.7251,53.3821 L117.8511,53.3821 C123.6821,53.3821 128.4261,58.1261 128.4261,63.9571 L128.4261,122.0821 C128.4261,127.9131 123.6821,132.6571 117.8511,132.6571 Z M51.0701,23.5751 C33.5761,23.5751 19.3441,37.8071 19.3441,55.3011 L19.3441,130.7391 C19.3441,148.2321 33.5761,162.4641 51.0701,162.4641 L126.5071,162.4641 C144.0001,162.4641 158.2321,148.2321 158.2321,130.7391 L158.2321,55.3011 C158.2321,37.8071 144.0001,23.5751 126.5071,23.5751 L51.0701,23.5751 Z M126.5071,173.0391 L51.0701,173.0391 C27.7451,173.0391 8.7691,154.0641 8.7691,130.7391 L8.7691,55.3011 C8.7691,31.9751 27.7451,13.0001 51.0701,13.0001 L126.5071,13.0001 C149.8321,13.0001 168.8071,31.9751 168.8071,55.3011 L168.8071,130.7391 C168.8071,154.0641 149.8321,173.0391 126.5071,173.0391 Z" id="Fill-1" fill="#FF4141"></path>
            <path d="M254.7275,69.625 C247.8545,69.625 242.2825,64.053 242.2825,57.18 C242.2825,50.307 247.8545,44.735 254.7275,44.735 C261.6005,44.735 267.1725,50.307 267.1725,57.18 C267.1725,64.053 261.6005,69.625 254.7275,69.625" id="Fill-3" fill="#FFFFFF"></path>
            <mask id="mask-2" fill="white">
                <use xlink:href="#path-1"></use>
            </mask>
            <g id="Clip-6"></g>
            <polygon id="Fill-5" fill="#FFFFFF" mask="url(#mask-2)" points="431.317 153.987 457.48 153.987 457.48 34.896 431.317 34.896"></polygon>
            <path d="M507.9224,129.3213 C525.7864,129.3213 540.7244,118.2333 540.7244,94.5183 C540.7244,70.8023 525.9404,59.5603 508.0764,59.5603 L499.0394,59.5603 L499.0394,129.3213 L507.9224,129.3213 Z M473.6034,153.9863 L473.6034,34.8953 L508.2114,34.8953 C542.1404,34.8953 567.0004,56.8993 567.0004,94.5253 C567.0004,132.1503 541.9724,153.9863 508.0424,153.9863 L473.6034,153.9863 Z" id="Fill-7" fill="#FFFFFF" mask="url(#mask-2)"></path>
            <polygon id="Fill-8" fill="#FFFFFF" mask="url(#mask-2)" points="204.411 153.987 226.164 153.987 226.164 34.896 204.411 34.896"></polygon>
            <polygon id="Fill-9" fill="#FFFFFF" mask="url(#mask-2)" points="243.945 153.986 265.511 153.986 265.511 79.865 243.945 79.865"></polygon>
            <path d="M305.2334,62.6216 L305.2334,74.6236 L324.4304,74.6236 L324.4304,93.5646 L305.2334,93.5646 L305.2334,153.9866 L283.2914,153.9866 L283.2914,93.5646 L283.2914,74.6236 L283.2914,62.0596 C283.2914,41.6186 296.4194,29.2406 315.1724,29.2406 C320.6104,29.2406 325.1114,30.3656 326.6124,31.1166 L326.6124,49.6816 C325.2984,49.3066 322.8614,48.7436 318.7354,48.7436 C312.9224,48.7436 305.2334,51.3696 305.2334,62.6216" id="Fill-10" fill="#FFFFFF" mask="url(#mask-2)"></path>
            <path d="M388.6035,100.8545 C388.2675,91.2725 381.8795,82.6995 368.4315,82.6995 C356.1595,82.6995 349.0995,92.1135 348.4265,100.8545 L388.6035,100.8545 Z M409.4645,129.4405 C404.8465,144.5415 391.1665,156.7985 370.3805,156.7985 C346.9305,156.7985 326.1445,139.7445 326.1445,110.4315 C326.1445,83.0715 346.3975,64.9515 368.2495,64.9515 C394.8975,64.9515 410.5305,82.5395 410.5305,109.8985 C410.5305,113.2735 410.1765,116.1165 409.9985,116.4715 L348.0745,116.4715 C348.6075,129.6175 357.5895,138.0325 370.3805,138.0325 C382.8165,138.0325 388.2805,132.5435 391.1235,124.0165 L409.4645,129.4405 Z" id="Fill-11" fill="#FFFFFF" mask="url(#mask-2)"></path>
        </g>
    </g>
</svg>