<?xml version="1.0" encoding="UTF-8"?>
<svg width="161px" height="161px" viewBox="0 0 161 161" version="1.1" xmlns="http://www.w3.org/2000/svg" xmlns:xlink="http://www.w3.org/1999/xlink">
    <!-- Generator: Sketch 43.2 (39069) - http://www.bohemiancoding.com/sketch -->
    <title>Fill 1</title>
    <desc>Created with Sketch.</desc>
    <defs></defs>
    <g id="Page-1" stroke="none" stroke-width="1" fill="none" fill-rule="evenodd">
        <path d="M130.0781,83.7861 L140.6531,83.7861 L140.6531,113.4471 C140.6531,128.0251 128.7931,139.8851 114.2151,139.8851 L84.3111,139.8851 L84.3111,129.3091 L114.2151,129.3091 C122.9621,129.3091 130.0781,122.1931 130.0781,113.4471 L130.0781,83.7861 Z M77.2491,129.3091 L77.2491,139.8851 L47.3611,139.8851 C32.7831,139.8851 20.9231,128.0251 20.9231,113.4471 L20.9231,83.7861 L31.4981,83.7861 L31.4981,113.4471 C31.4981,122.1931 38.6141,129.3091 47.3611,129.3091 L77.2491,129.3091 Z M84.3111,30.7291 L84.3111,20.1551 L114.2151,20.1551 C128.7931,20.1551 140.6531,32.0151 140.6531,46.5921 L140.6531,76.7241 L130.0781,76.7241 L130.0781,46.5921 C130.0781,37.8461 122.9621,30.7291 114.2151,30.7291 L84.3111,30.7291 Z M31.4981,76.7241 L20.9231,76.7241 L20.9231,46.5921 C20.9231,32.0151 32.7831,20.1551 47.3611,20.1551 L77.2491,20.1551 L77.2491,30.7291 L47.3611,30.7291 C38.6141,30.7291 31.4981,37.8461 31.4981,46.5921 L31.4981,76.7241 Z M93.1991,60.4331 C97.6301,60.4331 101.2341,64.0381 101.2341,68.4691 L101.2341,92.7681 C101.2341,97.1991 97.6301,100.8041 93.1991,100.8041 L79.2121,100.8041 L79.2121,90.2281 L90.6591,90.2281 L90.6591,71.0091 L79.2121,71.0091 L79.2121,60.4331 L93.1991,60.4331 Z M72.1501,100.8041 L65.5661,100.8041 L65.5661,100.7911 L61.6151,100.7911 L61.6151,71.0091 L61.6151,60.5551 L61.6151,60.4331 L72.1501,60.4331 L72.1501,100.8041 Z M51.7251,109.0821 L109.8501,109.0821 L109.8501,50.9571 L51.7251,50.9571 L51.7251,109.0821 Z M109.8511,119.6571 L51.7251,119.6571 C45.8941,119.6571 41.1501,114.9131 41.1501,109.0821 L41.1501,50.9571 C41.1501,45.1261 45.8941,40.3821 51.7251,40.3821 L109.8511,40.3821 C115.6821,40.3821 120.4261,45.1261 120.4261,50.9571 L120.4261,109.0821 C120.4261,114.9131 115.6821,119.6571 109.8511,119.6571 Z M43.0701,10.5751 C25.5761,10.5751 11.3441,24.8071 11.3441,42.3011 L11.3441,117.7391 C11.3441,135.2321 25.5761,149.4641 43.0701,149.4641 L118.5071,149.4641 C136.0001,149.4641 150.2321,135.2321 150.2321,117.7391 L150.2321,42.3011 C150.2321,24.8071 136.0001,10.5751 118.5071,10.5751 L43.0701,10.5751 Z M118.5071,160.0391 L43.0701,160.0391 C19.7451,160.0391 0.7691,141.0641 0.7691,117.7391 L0.7691,42.3011 C0.7691,18.9751 19.7451,0.0001 43.0701,0.0001 L118.5071,0.0001 C141.8321,0.0001 160.8071,18.9751 160.8071,42.3011 L160.8071,117.7391 C160.8071,141.0641 141.8321,160.0391 118.5071,160.0391 Z" id="Fill-1" fill="#FFFFFF"></path>
    </g>
</svg>